<?xml version="1.0" standalone="no"?><!DOCTYPE svg PUBLIC "-//W3C//DTD SVG 1.1//EN" "http://www.w3.org/Graphics/SVG/1.1/DTD/svg11.dtd"><svg t="1538797255948" class="icon" style="" viewBox="0 0 1024 1024" version="1.1" xmlns="http://www.w3.org/2000/svg" p-id="23524" xmlns:xlink="http://www.w3.org/1999/xlink" width="200" height="200"><defs><style type="text/css"></style></defs><path d="M909.8 305.6c-5.4-10.5-16.3-17.8-28.9-17.8-17.8 0-32.2 14.4-32.2 32.1 0 6 1.7 11.7 4.6 16.5l-0.1 0.1c26.9 52.4 42.1 111.8 42.1 174.7 0 211.6-171.6 383.2-383.2 383.2S128.8 722.9 128.8 511.2 300.4 128.1 512 128.1c62.5 0 121.5 15 173.6 41.5l0.2-0.4c4.6 2.6 10 4.1 15.7 4.1 17.8 0 32.2-14.4 32.2-32.1 0-13.1-7.9-24.4-19.3-29.4C653.6 81 584.9 63.6 512 63.6 264.7 63.6 64.2 264 64.2 511.2S264.7 958.9 512 958.9s447.7-200.4 447.7-447.7c0-74.1-18-144-49.9-205.6z" fill="#ffffff" p-id="23525"></path><path d="M771.7 219.7a32.2 32.1 0 1 0 64.4 0 32.2 32.1 0 1 0-64.4 0Z" fill="#ffffff" p-id="23526"></path><path d="M368.1 383.8m-45.1 0a45.1 45.1 0 1 0 90.2 0 45.1 45.1 0 1 0-90.2 0Z" fill="#ffffff" p-id="23527"></path><path d="M654.2 383.8m-45.1 0a45.1 45.1 0 1 0 90.2 0 45.1 45.1 0 1 0-90.2 0Z" fill="#ffffff" p-id="23528"></path><path d="M512.5 739.2c75.7 0 141.2-43.9 172.5-107.6 2.3-4.7 3.8-10 3.8-15.6 0-17.7-14.4-32-32.2-32.1-12.9 0-24.1 7.3-29.2 18.1-20.3 43.5-64.4 73.6-115.4 73.6s-94.4-30.2-114.8-73.5c0-0.1-0.1-0.2-0.1-0.3-5.3-10.6-16.2-17.9-28.9-17.9-17.8 0-32.2 14.4-32.2 32.1 0 5 1.2 9.8 3.3 14.1 30.9 64.5 96.8 109.1 173.2 109.1z" fill="#ffffff" p-id="23529"></path></svg>