<?xml version="1.0" standalone="no"?><!DOCTYPE svg PUBLIC "-//W3C//DTD SVG 1.1//EN" "http://www.w3.org/Graphics/SVG/1.1/DTD/svg11.dtd"><svg t="1538882320450" class="icon" style="" viewBox="0 0 1024 1024" version="1.1" xmlns="http://www.w3.org/2000/svg" p-id="19690" xmlns:xlink="http://www.w3.org/1999/xlink" width="200" height="200"><defs><style type="text/css"></style></defs><path d="M528.978185 161.824619a24.020066 24.020066 0 0 0-16.981767-7.033184 23.989367 23.989367 0 0 0-16.973579 7.033184L320.073294 336.772117c-9.376555 9.377578-9.376555 24.576745 0 33.952276 9.375531 9.375531 24.576745 9.378601 33.952277 0l157.971871-157.971871 157.972894 157.971871a23.932062 23.932062 0 0 0 16.977673 7.033183 23.941272 23.941272 0 0 0 16.978697-7.033183c9.375531-9.376555 9.375531-24.576745 0-33.952276L528.975115 161.824619h0.00307zM64.55783 607.030353h102.696963v262.178212h48.015574V607.030353h102.697986v-48.013526H64.55783v48.013526zM582.790788 559.016827h-127.196961c-15.358803 0-30.719652 5.860475-42.439578 17.579377-11.718903 11.719926-17.578354 27.079752-17.578353 42.437531v190.156898c0 15.361873 5.860475 30.720675 17.578353 42.439578 11.720949 11.720949 27.080775 17.579377 42.439578 17.579377h127.196961c15.356756 0 30.719652-5.859451 42.438555-17.579377 11.719926-11.719926 17.579377-27.079752 17.579377-42.439578V619.033735c0-15.358803-5.862521-30.718629-17.579377-42.437531-11.719926-11.721973-27.082822-17.579377-42.438555-17.579377z m12.003382 250.173806c0 2.269693-0.61296 5.582135-3.515057 8.486278-2.908236 2.90619-6.223748 3.518127-8.489348 3.518127h-127.196961c-2.267647 0-5.581112-0.610914-8.485255-3.515057-2.90619-2.908236-3.518127-6.222725-3.518127-8.490372V619.033735c0-2.267647 0.60989-5.581112 3.515057-8.485255 2.905166-2.90619 6.221702-3.518127 8.488325-3.518127h127.196961c2.267647 0 5.581112 0.61296 8.483208 3.515057 2.908236 2.907213 3.520173 6.223748 3.520173 8.488325v190.156898h0.001024zM941.860746 576.59518c-11.719926-11.720949-27.082822-17.579377-42.440601-17.579377H734.803947v310.192762h48.015573V733.158982h116.600625c15.360849 0 30.722722-5.860475 42.440601-17.579377 11.718903-11.720949 17.5804-27.081799 17.580401-42.439578v-54.107315c0-15.357779-5.861498-30.717605-17.580401-42.437532z m-30.433126 96.54587c0 2.269693-0.61296 5.580089-3.514033 8.485255-2.90926 2.907213-6.223748 3.518127-8.490372 3.518127H782.81952v-78.113055h116.603695c2.26867 0 5.581112 0.61296 8.487302 3.515057 2.904143 2.907213 3.517103 6.223748 3.517103 8.488324v54.106292z" fill="#d81e06" p-id="19691"></path></svg>