<?xml version="1.0" standalone="no"?><!DOCTYPE svg PUBLIC "-//W3C//DTD SVG 1.1//EN" "http://www.w3.org/Graphics/SVG/1.1/DTD/svg11.dtd"><svg t="1538797070612" class="icon" style="" viewBox="0 0 1024 1024" version="1.1" xmlns="http://www.w3.org/2000/svg" p-id="20486" xmlns:xlink="http://www.w3.org/1999/xlink" width="200" height="200"><defs><style type="text/css"></style></defs><path d="M948.598857 372.805053c-13.257929-29.506975-37.806995-50.279026-67.160475-58.34164l50.390566-57.526066c27.894248-31.389855 34.325715-75.137131 16.769909-114.223257-17.218116-38.35651-53.425687-62.161634-94.518512-62.161634H293.633034L95.494744 306.83775c-7.219411 8.103546-13.061454 17.148531-17.387985 26.824895-14.522733 32.386553-11.20518 71.527937 8.623385 102.146221 13.400168 20.701443 32.724244 34.788248 54.831706 41.922725l-50.478571 62.469648C64.089539 571.519463 58.107303 614.524843 75.466635 652.389143c12.809721 27.920854 36.093984 47.975569 64.04349 56.431131l-48.426846 59.324012c-27.189191 31.544374-33.059887 75.16476-15.335236 113.844634 17.360355 37.920582 53.424663 61.458624 94.126586 61.458624h563.7884l198.165919-226.284271c27.894248-31.404181 34.325715-75.166807 16.769909-114.266235-13.257929-29.493672-37.806995-50.28005-67.160475-58.31401l50.390566-57.53937c27.894248-31.375529 34.325715-75.140201 16.769909-114.238605z m-813.611736 31.726522c-7.1355-11.011776-9.717296-24.156118-7.638966-36.347764h353.443115V310.644442H168.609825l151.088812-172.565919h534.380685c18.399009 0 34.099564 10.533893 42.049614 28.186913 6.376208 14.228021 7.809857 35.448279-7.416908 52.59681L707.595379 425.695551H173.214694c-21.319519 0-33.086493-13.257929-38.227573-21.163976z m719.092201 193.758548c18.399009 0 34.099564 10.560499 42.049614 28.203285 6.376208 14.212671 7.809857 35.446233-7.416908 52.580438L707.595379 885.922501H169.873606c-18.201511 0-33.847831-10.423376-41.854163-27.864572-3.733014-8.202806-5.36416-18.792981-3.510957-29.661495H567.094696v-57.527089H163.103426l46.964544-57.525043h523.595059l100.753504-115.054179h19.662789z m34.632706-149.307239L707.595379 655.816189H169.873606c-18.511572 0-34.269433-10.224855-42.105896-27.417388-4.54961-9.885118-5.280249-20.222537-3.061726-30.109702h212.27012v-57.527089H164.564704l46.486661-57.525043h522.611664l100.753504-115.054179h19.663812c18.399009 0 34.099564 10.533893 42.049615 28.202262 6.376208 14.213695 7.808834 35.434976-7.417932 52.597834z" p-id="20487" fill="#ffffff"></path></svg>