<?xml version="1.0" standalone="no"?><!DOCTYPE svg PUBLIC "-//W3C//DTD SVG 1.1//EN" "http://www.w3.org/Graphics/SVG/1.1/DTD/svg11.dtd"><svg t="1538793486084" class="icon" style="" viewBox="0 0 1024 1024" version="1.1" xmlns="http://www.w3.org/2000/svg" p-id="3573" xmlns:xlink="http://www.w3.org/1999/xlink" width="200" height="200"><defs><style type="text/css"></style></defs><path d="M558.933333 640c19.776-97.365333 105.856-170.666667 209.066667-170.666667 48.042667 0 92.373333 15.872 128.021333 42.666667v-170.538667A128.106667 128.106667 0 0 0 768 213.333333a42.666667 42.666667 0 1 1 0-85.333333c117.802667 0 213.354667 95.573333 213.354667 213.461333V682.666667l-0.021334 1.621333C980.458667 801.365333 885.269333 896 768 896c-103.210667 0-189.290667-73.301333-209.066667-170.666667h-93.866666c-19.776 97.365333-105.856 170.666667-209.066667 170.666667-117.824 0-213.333333-95.509333-213.333333-213.333333V341.461333C42.666667 223.573333 138.24 128 256.021333 128a42.666667 42.666667 0 1 1 0 85.333333A128.106667 128.106667 0 0 0 128 341.461333v170.517334A212.394667 212.394667 0 0 1 256 469.333333c103.210667 0 189.290667 73.301333 209.066667 170.666667h93.866666zM256 810.666667a128 128 0 1 0 0-256 128 128 0 0 0 0 256z m512 0a128 128 0 1 0 0-256 128 128 0 0 0 0 256z" fill="#ffffff" p-id="3574"></path></svg>