<?xml version="1.0" standalone="no"?><!DOCTYPE svg PUBLIC "-//W3C//DTD SVG 1.1//EN" "http://www.w3.org/Graphics/SVG/1.1/DTD/svg11.dtd"><svg t="1538879128368" class="icon" style="" viewBox="0 0 1024 1024" version="1.1" xmlns="http://www.w3.org/2000/svg" p-id="3528" xmlns:xlink="http://www.w3.org/1999/xlink" width="200" height="200"><defs><style type="text/css"></style></defs><path d="M960 335.008 960 46.512 671.52 46.512l0 114.608 92.88 0-128.208 128.176c-59.328-37.36-129.024-57.664-199.632-57.664-99.632 0-193.168 38.704-263.44 108.976-145.504 145.504-145.488 382.24 0 527.744 70.368 70.368 164.112 109.104 263.888 109.12 99.76 0 193.504-38.752 263.888-109.12 70.368-70.384 109.152-164.128 109.152-263.888 0-88.72-30.656-172.656-87.12-239.808l122.496-122.496 0 92.848L960 335.008zM437.008 862.912c-69.168 0-134.08-26.848-182.848-75.6-100.784-100.816-100.784-264.848 0-365.664 48.752-48.736 113.68-75.616 182.848-75.6 69.168 0 134.112 26.864 182.848 75.6 100.8 100.816 100.8 264.848 0 365.664C571.072 836.064 506.16 862.912 437.008 862.912z" p-id="3529" fill="#333333"></path></svg>