<?xml version="1.0" standalone="no"?><!DOCTYPE svg PUBLIC "-//W3C//DTD SVG 1.1//EN" "http://www.w3.org/Graphics/SVG/1.1/DTD/svg11.dtd"><svg t="1538881715939" class="icon" style="" viewBox="0 0 1024 1024" version="1.1" xmlns="http://www.w3.org/2000/svg" p-id="15093" xmlns:xlink="http://www.w3.org/1999/xlink" width="200" height="200"><defs><style type="text/css"></style></defs><path d="M270.614 84.956m-84.956 0a84.956 84.956 0 1 0 169.912 0 84.956 84.956 0 1 0-169.912 0Z" fill="" p-id="15094"></path><path d="M281.238 942.698v32.11c0 27.168 22.026 49.192 49.192 49.192 27.168 0 49.192-22.024 49.192-49.192v-32.11h-98.384zM161.616 942.698v32.11c0 27.168 22.026 49.192 49.192 49.192S260 1001.976 260 974.808v-32.11H161.616zM478.936 285.282c-0.202-40.158-25.422-74.654-61.008-89.176 17.288 100.022 22.674 338.512 24.148 431.33 20.7-2.072 36.86-19.54 36.86-40.786v-301.16a3.606 3.606 0 0 0 0-0.208zM412.29 665.066l0.016 0.008s-3.54-383.898-27.938-482.114c-1.38-5.554-6.846-4.82-10.464-4.82a9.616 9.616 0 0 0-7.13 3.166L157.668 412.526s-7.7 47.026-13.376 86.316V285.638v-0.012a8.88 8.88 0 0 1 17.76 0.1v76.83l157.17-173.794H160.826c-54.06 0-98.258 43.302-98.522 96.524l-0.002 0.204v301.162c0 2.83 0.286 5.594 0.834 8.262 3.698 18.072 19.304 31.762 38.258 32.636 0.636 0.03 1.262 0.096 1.904 0.096 11.426 0 21.748-4.684 29.184-12.224-3.088 46.512-4.738 95.342-4.738 145.718 0 30.908 0.624 98.732 1.812 137.306a14.428 14.428 0 0 0 14.434 13.986h254.096a14.44 14.44 0 0 0 14.434-13.986c0.738-23.924 3.628-142.996-0.23-233.38zM743.968 943.28v31.88c0 26.974 21.868 48.838 48.84 48.838 26.974 0 48.84-21.866 48.84-48.838v-31.88h-97.68zM625.204 943.28v31.88c0 26.974 21.868 48.838 48.84 48.838 26.974 0 48.84-21.866 48.84-48.838v-31.88h-97.68z" fill="" p-id="15095"></path><path d="M745.656 87.604m-84.316 0a84.316 84.316 0 1 0 168.632 0 84.316 84.316 0 1 0-168.632 0Z" fill="" p-id="15096"></path><path d="M870.386 496.558l-125.708-88.96c-155.436 110-133.63 94.596-136.942 96.846-3.664 25.486-4.784 36.436-4.784 36.436l0.01 0.004c-7.33 68.2-11.392 143.278-11.392 222.142 0 30.686 0.616 98.022 1.8 136.32a14.324 14.324 0 0 0 14.328 13.886h252.276a14.332 14.332 0 0 0 14.328-13.886c1.182-38.298 5.552-105.078 5.552-135.764 0.006-32.518-3.334-211.674-9.468-267.024zM846.356 188.992a6.306 6.306 0 0 0-6.114-4.786h-4.274a9.55 9.55 0 0 0-7.078 3.14L747.52 277.32c21.382-8.622 46.562-6.55 66.778 7.758l47.618 33.698c-3.874-55.384-8.946-103.156-15.56-129.784z" fill="" p-id="15097"></path><path d="M960.676 437.682l-23.02-162.726c-4.746-33.298-27.654-60.272-57.732-71.498 11.726 69.196 13.634 157.432 14.206 174.164l-96.826-68.522c-16.582-11.734-38.896-9.264-52.622 4.862-13.884-14.292-36.302-16.412-52.622-4.862l-70.096 49.606 10.298-72.272v-0.002a4.852 4.852 0 0 1 9.698 0.226v21.844l33.1-23.426a69.646 69.646 0 0 1 36.468-12.758c7.314-8.088 59.586-66.286 66.836-74.302H640.61c-44.474 0-82.622 32.834-88.908 76.936 0 0-23.422 164.198-23.738 167.038-3.94 35.348 35.774 57.646 63.894 37.7l147.202-104.17a40.86 40.86 0 0 0 5.618-4.834 40.844 40.844 0 0 0 5.616 4.834l147.202 104.17c30.334 21.466 71.198-5.8 63.18-42.008z" fill="" p-id="15098"></path></svg>