<?xml version="1.0" standalone="no"?><!DOCTYPE svg PUBLIC "-//W3C//DTD SVG 1.1//EN" "http://www.w3.org/Graphics/SVG/1.1/DTD/svg11.dtd"><svg t="1538878559715" class="icon" style="" viewBox="0 0 1024 1024" version="1.1" xmlns="http://www.w3.org/2000/svg" p-id="1441" xmlns:xlink="http://www.w3.org/1999/xlink" width="200" height="200"><defs><style type="text/css"></style></defs><path d="M816.8 321.1c9.3-54.5-38.9-101.2-92.7-89.6-84.1 18.7-179.1 34.3-250 43.6-25.7 3.1-25.7 15.6-3.1 22.6 8.6 2.3 20.2 5.5 35 7.8 61.5 10.9 84.9 87.2 40.5 130.8-14 14-28 28-42.8 42.1-29.6 28-74.8 28.8-105.9 1.6-10.9-9.3-23.4-17.9-38.9-24.9-35.8-15.6-79.4 14-67 29.6 17.1 19.5 33.5 38.9 48.3 56.9 26.5 31.2 24.1 77.1-5.5 105.9C285.6 695 223.3 755.8 209.3 769c-18.7 18.7 46.7 27.3 80.2 11.7 32.7-15.6 66.2-41.3 97.3-68.5 33.5-28.8 84.1-24.9 111.4 10.1 22.6 28.8 42.8 55.3 49.8 63.1 35.8 37.4 24.1-51.4 19.5-68.5-5.5-19.5-17.1-42.8-30.4-64.6-17.9-29.6-14-67 10.1-92.7 20.2-21.8 45.2-49.1 70.9-76.3 41.3-45.2 115.3-26.5 131.6 31.9 0 0.8 0 0.8 0.8 1.6 17.9 58.4 45.9 94.2 45.2 70.9-3.1-68.8 4-170.1 21.1-266.6z" fill="#333333" p-id="1442"></path></svg>