<?xml version="1.0" standalone="no"?><!DOCTYPE svg PUBLIC "-//W3C//DTD SVG 1.1//EN" "http://www.w3.org/Graphics/SVG/1.1/DTD/svg11.dtd"><svg t="1538878644434" class="icon" style="" viewBox="0 0 1281 1024" version="1.1" xmlns="http://www.w3.org/2000/svg" p-id="2724" xmlns:xlink="http://www.w3.org/1999/xlink" width="250.1953125" height="200"><defs><style type="text/css"></style></defs><path d="M482.608457 524.066517C494.021308 570.034338 561.565926 599.73609 654.687373 599.73609 724.435789 599.73609 768.665293 574.426607 786.796693 550.745169 798.748186 535.140676 802.156693 517.726921 796.926647 498.987145 786.498415 461.611145 732.202667 443.420766 644.033254 417.90418L619.43235 410.773573C529.52538 384.762247 427.623479 355.279101 406.028549 277.889438 395.128277 238.827865 402.788006 199.472899 427.594522 167.073079 428.582033 165.784449 429.604297 164.515955 430.641037 163.253213 437.709999 154.647011 439.160858 142.767461 434.368098 132.731686 429.572442 122.69591 419.390359 116.301663 408.206287 116.301663L306.481038 116.301663C298.048096 116.301663 290.035065 119.95182 284.532803 126.300045L159.89787 270.12027C150.549816 280.906787 150.549816 296.862202 159.89787 307.651596L375.021852 555.891055C383.301309 565.440721 396.86873 568.5271 408.507463 563.507776 420.146196 558.488448 427.136964 546.528358 425.7614 534.001617 424.197599 519.766293 433.571716 506.445662 447.570633 503.019866 449.872892 502.45609 452.218594 502.171324 454.546918 502.171324 467.868186 502.171324 479.411354 511.174473 482.608457 524.066517L482.608457 524.066517ZM433.696243 447.165841C413.630359 452.078741 396.72683 463.762697 385.044657 479.278025L220.052079 288.885932 319.761762 173.829753 357.177146 173.829753C341.371174 211.214382 338.793798 252.335461 350.21244 293.252314 380.431445 401.540314 503.968819 437.285393 603.226739 466.000538L627.821854 473.128269C652.45751 480.258876 680.382938 488.341572 703.257869 496.956403 728.333709 506.405393 737.678865 512.888811 740.881762 515.676045 740.823842 515.750831 740.765926 515.831373 740.702212 515.914786 732.610991 526.482697 703.02909 542.205124 654.693163 542.205124 575.967373 542.205124 541.746197 518.37699 538.85027 510.291418 529.25606 471.638293 494.588911 444.640358 454.544026 444.640358 447.54167 444.643234 440.530633 445.494652 433.696243 447.165841L433.696243 447.165841Z" p-id="2725"></path><path d="M762.242125 637.169617C730.659136 650.314786 693.466739 657.264179 654.687373 657.264179 600.35398 657.264179 551.210086 647.999279 512.563934 630.476224 500.186739 624.861483 485.547823 628.563418 477.381308 639.367189 469.211895 650.170965 469.712892 665.165662 478.588911 675.408538L618.09443 836.389393C623.596693 842.737617 631.609724 846.387776 640.042667 846.387776 648.47561 846.387776 656.48864 842.737617 661.990903 836.389393L795.383121 682.464358C804.146197 672.350921 804.757235 657.580582 796.860041 646.788314 788.962846 635.993169 774.633796 632.012224 762.242125 637.169617L762.242125 637.169617ZM640.042667 773.528448 584.921579 709.922517C607.179682 713.14409 630.552713 714.789393 654.687373 714.789393 667.469999 714.789393 680.145472 714.145079 692.603755 712.873707L640.042667 773.528448 640.042667 773.528448Z" p-id="2726"></path><path d="M973.610086 116.304539 867.668369 116.304539C856.304747 116.304539 845.99235 122.905888 841.298052 133.180404 836.600858 143.457798 838.390541 155.512809 845.873617 164.006831 867.827644 188.930877 878.95959 218.212674 878.95959 251.041079 878.95959 266.901573 865.968457 279.805123 850.000316 279.805123 834.032171 279.805123 821.041037 266.901573 821.041037 251.041079 821.041037 178.440629 721.933709 145.943011 623.709636 145.943011 544.694251 145.943011 494.409365 174.848 473.694793 201.900584 459.70167 220.174382 455.716877 240.570966 461.841762 262.523686 473.885926 305.681258 541.471083 328.301303 635.620587 355.537978L660.224384 362.668584C749.04538 388.375011 832.940403 412.651865 852.742758 483.618517 857.190903 499.565303 858.334793 515.572493 856.142575 531.194249 854.37027 543.830293 861.190178 556.118293 872.895518 561.376358 876.732621 563.099324 880.792713 563.933483 884.815155 563.933483 893.059861 563.933483 901.139499 560.4329 906.774976 553.932224L1120.199049 307.654472C1129.547102 296.867955 1129.547102 280.912539 1120.199049 270.123146L995.564113 126.302921C990.05606 119.954697 982.043029 116.304539 973.610086 116.304539L973.610086 116.304539ZM907.562667 464.832721C877.688277 365.685932 770.828548 334.758831 676.435789 307.441618L651.82909 300.311011C623.078323 291.992449 590.487552 282.563596 563.083392 271.805843 526.730812 257.533123 518.711987 248.17618 517.452258 246.404314 516.432892 242.478022 516.71959 240.740674 519.795063 236.725213 528.601579 225.222472 561.655697 203.471101 623.709636 203.471101 703.501129 203.471101 763.122487 228.587865 763.122487 251.041079 763.122487 298.622562 802.095881 337.333213 850.000316 337.333213 897.904747 337.333213 936.87814 298.622562 936.87814 251.041079 936.87814 223.864809 931.277419 197.81609 920.432171 173.832629L960.329365 173.832629 1060.039049 288.888809 907.562667 464.832721 907.562667 464.832721Z" p-id="2727"></path><path d="M1273.031625 270.123146 1048.689907 11.246742C1043.187644 4.898517 1035.174613 1.24836 1026.74167 1.24836L253.343662 1.24836C244.910721 1.24836 236.897689 4.898517 231.395427 11.246742L7.053707 270.123146C-2.294347 280.909663-2.294347 296.865079 7.053707 307.654472L618.09443 1012.753259C623.596693 1019.101483 631.609724 1022.754517 640.042667 1022.754517 648.47561 1022.754517 656.48864 1019.101483 661.990903 1012.753259L1273.031625 307.654472C1282.379682 296.867955 1282.379682 280.912539 1273.031625 270.123146L1273.031625 270.123146ZM640.042667 949.898069 67.210811 288.888809 266.627282 58.776449 1013.458052 58.776449 1212.874522 288.888809 640.042667 949.898069 640.042667 949.898069Z" p-id="2728"></path></svg>